Coordinates
version=1
nRows=10
nColumns=63
inDegrees=yes

Units are S.I. units (second, meters, Newtons, ...)
If the header above contains a line with 'inDegrees', this indicates whether rotational values are in degrees (yes) or radians (no).

endheader
time	pelvis_tilt	pelvis_list	pelvis_rotation	pelvis_tx	pelvis_ty	pelvis_tz	hip_flexion_r	hip_adduction_r	hip_rotation_r	knee_angle_r	knee_angle_r_beta	ankle_angle_r	subtalar_angle_r	mtp_angle_r	hip_flexion_l	hip_adduction_l	hip_rotation_l	knee_angle_l	knee_angle_l_beta	ankle_angle_l	subtalar_angle_l	mtp_angle_l	L5_S1_Flex_Ext	L5_S1_Lat_Bending	L5_S1_axial_rotation	L4_L5_Flex_Ext	L4_L5_Lat_Bending	L4_L5_axial_rotation	L3_L4_Flex_Ext	L3_L4_Lat_Bending	L3_L4_axial_rotation	L2_L3_Flex_Ext	L2_L3_Lat_Bending	L2_L3_axial_rotation	L1_L2_Flex_Ext	L1_L2_Lat_Bending	L1_L2_axial_rotation	L1_T12_Flex_Ext	L1_T12_Lat_Bending	L1_T12_axial_rotation	Abs_r3	Abs_r2	Abs_r1	Abs_t1	Abs_t2	neck_flexion	neck_bending	neck_rotation	arm_flex_r	arm_add_r	arm_rot_r	elbow_flex_r	pro_sup_r	wrist_flex_r	wrist_dev_r	arm_flex_l	arm_add_l	arm_rot_l	elbow_flex_l	pro_sup_l	wrist_flex_l	wrist_dev_l
      9.45000000	     -0.50450723	      1.66520932	     73.20915475	     -0.05919192	      0.79567895	      0.65596366	     -1.13712934	     -3.37149784	      6.67869387	     11.20564985	      0.19557548	     31.66753394	     11.85982703	      0.00000000	     -5.49239334	      2.32878759	    -30.32775470	      6.40844079	      0.11184839	     35.52011680	     14.15201985	      0.00000000	     -0.04072378	     -0.37579076	      2.40467440	     -0.07562813	     -0.49980171	      2.55496655	     -0.06690510	     -0.91369765	      2.55496655	     -0.04654321	     -0.91369765	      2.10409010	     -0.03781610	     -0.76631251	      1.95379795	     -0.02326957	     -0.58209988	      1.80350580	     -0.29088589	     -4.25102020	     13.37407764	      0.00000000	      0.00000000	      5.44286814	      1.42992871	     -0.23449664	      8.98681848	    -10.79155046	      4.73507167	     98.75394473	     67.56018517	    -11.81451648	     14.52442926	     19.49467140	    -19.61535272	     35.98851346	     91.11563445	     59.20164492	     -1.87576216	     20.82000942
      9.46666667	     -0.46635464	      1.57064845	     72.93871299	     -0.05902106	      0.79606104	      0.65631412	     -0.96092963	     -3.35744180	      6.47231670	     11.26713461	      0.19664860	     31.80440363	     12.58616960	      0.00000000	     -5.41966292	      2.32329813	    -30.25659162	      6.29613362	      0.10988826	     35.43160293	     13.96524514	      0.00000000	     -0.02968977	     -0.37552586	      2.42861272	     -0.05513687	     -0.49944939	      2.58040102	     -0.04877732	     -0.91305357	      2.58040102	     -0.03393244	     -0.91305357	      2.12503613	     -0.02756992	     -0.76577233	      1.97324784	     -0.01696473	     -0.58168955	      1.82145954	     -0.21207105	     -4.24802359	     13.50721539	      0.00000000	      0.00000000	      5.66403562	      1.34391761	     -0.75415360	      9.23527541	    -11.44228843	      3.15247848	     99.65186509	     68.39436653	    -12.32946200	     13.08051877	     18.99586741	    -18.77730321	     32.23135279	     90.80335803	     59.27860275	      3.68008254	     23.59290987
      9.48333333	     -0.38006710	      1.54102343	     72.86758722	     -0.05918799	      0.79655655	      0.65673167	     -0.89538917	     -3.30345783	      6.21388627	     11.34579023	      0.19802140	     31.72918377	     12.93322652	      0.00000000	     -5.38721755	      2.25687961	    -30.10035456	      6.25405841	      0.10915391	     35.41589856	     13.90264400	      0.00000000	     -0.03410037	     -0.36686880	      2.43957355	     -0.06332780	     -0.48793550	      2.59204689	     -0.05602350	     -0.89200479	      2.59204689	     -0.03897331	     -0.89200479	      2.13462685	     -0.03166560	     -0.74811885	      1.98215351	     -0.01948495	     -0.56827977	      1.82968016	     -0.24357553	     -4.15009320	     13.56817619	      0.00000000	      0.00000000	      5.89244352	      1.47014300	     -0.82516225	      9.11837447	    -12.00881420	      1.01040604	    100.92580143	     70.10045916	    -12.04532488	     12.55912123	     19.03825722	    -18.15366099	     29.74531941	     90.70287736	     58.84617326	      5.87554896	     24.43916863
      9.50000000	     -0.32361800	      1.51342701	     72.84538606	     -0.05941694	      0.79700599	      0.65722477	     -0.82639309	     -3.25641500	      6.16235684	     11.43977224	      0.19966169	     31.61801627	     12.93647172	      0.00000000	     -5.36114318	      2.22551857	    -30.01884438	      6.15794606	      0.10747643	     35.39736706	     14.00549611	      0.00000000	     -0.03753422	     -0.36341157	      2.43540673	     -0.06970480	     -0.48333739	      2.58761965	     -0.06166497	     -0.88359889	      2.58761965	     -0.04289786	     -0.88359889	      2.13098089	     -0.03485428	     -0.74106887	      1.97876797	     -0.02144705	     -0.56292452	      1.82655505	     -0.26810318	     -4.11098436	     13.54500163	      0.00000000	      0.00000000	      6.34981205	      1.59485951	     -0.89921562	      8.99389672	    -12.59068420	     -0.75858538	    102.19320792	     70.71758551	    -11.97249890	     12.07416213	     19.43335802	    -17.70349698	     28.03873931	     90.85292462	     58.19136039	      5.99077539	     24.42793877
      9.51666667	     -0.26217404	      1.52605940	     72.61312433	     -0.05934378	      0.79754690	      0.65765741	     -0.78245322	     -3.21254596	      6.29646441	     11.53240736	      0.20127848	     31.33766329	     12.83738513	      0.00000000	     -5.37266002	      2.20271875	    -30.29219516	      6.11183432	      0.10667163	     35.40922238	     14.20988325	      0.00000000	     -0.03917569	     -0.36521379	      2.54921281	     -0.07275318	     -0.48573434	      2.70853861	     -0.06436175	     -0.88798080	      2.70853861	     -0.04477390	     -0.88798080	      2.23056120	     -0.03637855	     -0.74474396	      2.07123540	     -0.02238499	     -0.56571616	      1.91190960	     -0.27982806	     -4.13137142	     14.17795686	      0.00000000	      0.00000000	      6.69420689	      1.38144566	     -1.96034744	      8.53983035	    -13.03881627	     -2.98404281	    103.60479431	     74.80965479	    -11.04293695	     12.50899300	     20.73994440	    -17.06989065	     27.33164220	     90.41566404	     54.27443008	      7.48307555	     25.58901674
      9.53333333	     -0.24714594	      1.52254141	     72.50220592	     -0.05913271	      0.79808904	      0.65803940	     -0.76365884	     -3.20352573	      6.27084152	     11.55424734	      0.20165966	     31.01403471	     12.82385225	      0.00000000	     -5.34780296	      2.20038225	    -30.30509507	      6.06284710	      0.10581664	     35.42011616	     14.22453836	      0.00000000	     -0.02377239	     -0.37230649	      2.52611150	     -0.04414771	     -0.49516764	      2.68399347	     -0.03905566	     -0.90522601	      2.68399347	     -0.02716947	     -0.90522601	      2.21034756	     -0.02207504	     -0.75920740	      2.05246559	     -0.01358354	     -0.57670276	      1.89458362	     -0.16980382	     -4.21160552	     14.04947433	      0.00000000	      0.00000000	      6.61610347	      1.39968255	     -1.96409798	      8.80546425	    -13.38055794	     -3.40629875	    104.29499058	     74.85510899	    -10.99377124	     12.38853411	     21.72697949	    -16.94355229	     26.61105764	     90.85805747	     54.12128416	      7.44668131	     25.39835764
      9.55000000	     -0.00493651	      1.55053767	     72.45725652	     -0.05946448	      0.79852783	      0.65816915	     -0.88903392	     -2.93937430	      6.69948035	     11.54137560	      0.20143500	     30.38596661	     11.78964662	      0.00000000	     -5.39417009	      1.95242359	    -30.52926151	      6.16157502	      0.10753977	     35.55606555	     14.60089606	      0.00000000	     -0.04083519	     -0.35658132	      2.70523104	     -0.07583503	     -0.47425316	      2.87430798	     -0.06708813	     -0.86699183	      2.87430798	     -0.04667054	     -0.86699183	      2.36707716	     -0.03791955	     -0.72714064	      2.19800022	     -0.02333323	     -0.55234447	      2.02892328	     -0.29168166	     -4.03371925	     15.04568350	      0.00000000	      0.00000000	      7.59278591	      1.19333403	     -3.55001161	      8.42098220	    -14.07446413	     -4.99653785	    105.68490197	     75.72407185	    -10.05013196	     13.52265023	     23.82266795	    -16.09146478	     27.79608264	     90.62620291	     51.12284570	      7.55733283	     24.64888525
      9.56666667	     -0.00379522	      1.50384406	     72.37670701	     -0.05945618	      0.79884289	      0.65844777	     -0.82332936	     -2.93419706	      6.62487146	     11.56681360	      0.20187898	     29.83846205	     11.57510149	      0.00000000	     -5.35405750	      1.96312524	    -30.59727804	      6.11268963	      0.10668656	     35.49567302	     14.63038437	      0.00000000	     -0.01892539	     -0.36546304	      2.71549205	     -0.03514634	     -0.48606584	      2.88521030	     -0.03109252	     -0.88858684	      2.88521030	     -0.02162983	     -0.88858684	      2.37605554	     -0.01757412	     -0.74525223	      2.20633729	     -0.01081397	     -0.56610225	      2.03661903	     -0.13518217	     -4.13419101	     15.10275212	      0.00000000	      0.00000000	      7.81157567	      1.24491002	     -3.79436199	      9.39576591	    -14.21936538	     -4.70026448	    105.53134473	     75.65530389	     -9.92877175	     13.65722816	     25.12800271	    -15.50281518	     27.80231747	     91.17645621	     50.95970360	      7.57993492	     24.36473098
      9.58333333	      0.09517979	      1.72455059	     72.16620787	     -0.05893186	      0.79919537	      0.65917841	     -1.07203391	     -2.69690278	      8.56202886	     11.53561813	      0.20133452	     29.14437685	      8.82085816	      0.00000000	     -5.54621652	      1.85637155	    -31.32989378	      6.31587071	      0.11023274	     35.58776340	     15.17037678	      0.00000000	     -0.05000682	     -0.38362723	      2.73770809	     -0.09286766	     -0.51022422	      2.90881484	     -0.08215620	     -0.93275126	      2.90881484	     -0.05715279	     -0.93275126	      2.39549458	     -0.04643633	     -0.78229265	      2.22438782	     -0.02857390	     -0.59423858	      2.05328107	     -0.35719370	     -4.33966799	     15.22631107	      0.00000000	      0.00000000	      8.10742134	      1.31883689	     -4.71411976	     11.22284710	    -14.36588665	     -3.77787316	    104.52960200	     72.09432869	     -9.67254335	     13.43791968	     27.01437322	    -15.51016648	     29.34372872	     91.89830330	     50.71123069	      5.46827992	     21.27668696
      9.60000000	      0.16134365	      1.86824569	     71.96205438	     -0.05865151	      0.79936949	      0.66000706	     -1.15514230	     -2.61161338	      9.11764444	     11.60758522	      0.20259058	     28.70966214	      7.95045279	      0.00000000	     -5.68407708	      1.81990208	    -31.73037382	      6.42238857	      0.11209183	     35.51453160	     15.19902859	      0.00000000	     -0.05856164	     -0.39519232	      2.64667129	     -0.10875482	     -0.52560579	      2.81208824	     -0.09621091	     -0.96087061	      2.81208824	     -0.06693010	     -0.96087061	      2.31583738	     -0.05438034	     -0.80587618	      2.15042042	     -0.03346212	     -0.61215291	      1.98500347	     -0.41829992	     -4.47049457	     14.71999171	      0.00000000	      0.00000000	      7.91617367	      1.55726889	     -4.54502003	     13.88154735	    -14.19347074	     -1.95686659	    102.50187191	     70.01744707	     -9.67384229	     12.54937194	     28.21535993	    -15.40645944	     30.09600659	     93.01663445	     53.31442362	      1.81453080	     18.11128684
